<?xml version="1.0" encoding="UTF-8" standalone="no"?>
<!-- Created with Inkscape (http://www.inkscape.org/) -->

<svg
   version="1.1"
   id="svg1"
   width="313.13199"
   height="134.41068"
   viewBox="0 0 313.13199 134.41068"
   xmlns="http://www.w3.org/2000/svg"
   xmlns:svg="http://www.w3.org/2000/svg">
  <defs
     id="defs1">
    <clipPath
       clipPathUnits="userSpaceOnUse"
       id="clipPath16">
      <path
         d="M 0,100.808 H 234.849 V 0 H 0 Z"
         transform="translate(-47.777499,-56.990001)"
         id="path16" />
    </clipPath>
    <clipPath
       clipPathUnits="userSpaceOnUse"
       id="clipPath18">
      <path
         d="M 0,100.808 H 234.849 V 0 H 0 Z"
         transform="translate(-69.193104,-70.076902)"
         id="path18" />
    </clipPath>
    <clipPath
       clipPathUnits="userSpaceOnUse"
       id="clipPath20">
      <path
         d="M 0,100.808 H 234.849 V 0 H 0 Z"
         transform="translate(-97.6291,-39.548601)"
         id="path20" />
    </clipPath>
    <clipPath
       clipPathUnits="userSpaceOnUse"
       id="clipPath22">
      <path
         d="M 0,100.808 H 234.849 V 0 H 0 Z"
         transform="translate(-141.0432,-77.716602)"
         id="path22" />
    </clipPath>
    <clipPath
       clipPathUnits="userSpaceOnUse"
       id="clipPath24">
      <path
         d="M 0,100.808 H 234.849 V 0 H 0 Z"
         transform="translate(-179.3898,-39.253701)"
         id="path24" />
    </clipPath>
    <clipPath
       clipPathUnits="userSpaceOnUse"
       id="clipPath26">
      <path
         d="M 0,100.808 H 234.849 V 0 H 0 Z"
         transform="translate(-207.2443,-32.259601)"
         id="path26" />
    </clipPath>
    <clipPath
       clipPathUnits="userSpaceOnUse"
       id="clipPath28">
      <path
         d="M 0,100.808 H 234.849 V 0 H 0 Z"
         transform="translate(-27.014798,-23.440198)"
         id="path28" />
    </clipPath>
    <clipPath
       clipPathUnits="userSpaceOnUse"
       id="clipPath30">
      <path
         d="M 0,100.808 H 234.849 V 0 H 0 Z"
         transform="translate(-35.593898,-25.155103)"
         id="path30" />
    </clipPath>
    <clipPath
       clipPathUnits="userSpaceOnUse"
       id="clipPath32">
      <path
         d="M 0,100.808 H 234.849 V 0 H 0 Z"
         transform="translate(-42.068604,-26.293701)"
         id="path32" />
    </clipPath>
    <clipPath
       clipPathUnits="userSpaceOnUse"
       id="clipPath34">
      <path
         d="M 0,100.808 H 234.849 V 0 H 0 Z"
         transform="translate(-49.739499,-26.293701)"
         id="path34" />
    </clipPath>
    <clipPath
       clipPathUnits="userSpaceOnUse"
       id="clipPath36">
      <path
         d="M 0,100.808 H 234.849 V 0 H 0 Z"
         transform="translate(-58.514799,-25.155103)"
         id="path36" />
    </clipPath>
    <clipPath
       clipPathUnits="userSpaceOnUse"
       id="clipPath38">
      <path
         d="M 0,100.808 H 234.849 V 0 H 0 Z"
         transform="translate(-64.988499,-26.293701)"
         id="path38" />
    </clipPath>
    <clipPath
       clipPathUnits="userSpaceOnUse"
       id="clipPath40">
      <path
         d="M 0,100.808 H 234.849 V 0 H 0 Z"
         transform="translate(-72.590004,-23.659003)"
         id="path40" />
    </clipPath>
    <clipPath
       clipPathUnits="userSpaceOnUse"
       id="clipPath42">
      <path
         d="M 0,100.808 H 234.849 V 0 H 0 Z"
         transform="translate(-85.7707,-25.626703)"
         id="path42" />
    </clipPath>
    <clipPath
       clipPathUnits="userSpaceOnUse"
       id="clipPath44">
      <path
         d="M 0,100.808 H 234.849 V 0 H 0 Z"
         transform="translate(-94.810705,-24.038803)"
         id="path44" />
    </clipPath>
    <clipPath
       clipPathUnits="userSpaceOnUse"
       id="clipPath46">
      <path
         d="M 0,100.808 H 234.849 V 0 H 0 Z"
         transform="translate(-100.8352,-23.659003)"
         id="path46" />
    </clipPath>
    <clipPath
       clipPathUnits="userSpaceOnUse"
       id="clipPath48">
      <path
         d="M 0,100.808 H 234.849 V 0 H 0 Z"
         transform="translate(-110.2551,-25.752703)"
         id="path48" />
    </clipPath>
    <clipPath
       clipPathUnits="userSpaceOnUse"
       id="clipPath50">
      <path
         d="M 0,100.808 H 234.849 V 0 H 0 Z"
         transform="translate(-113.8195,-26.293701)"
         id="path50" />
    </clipPath>
    <clipPath
       clipPathUnits="userSpaceOnUse"
       id="clipPath52">
      <path
         d="M 0,100.808 H 234.849 V 0 H 0 Z"
         transform="translate(-121.4211,-23.659003)"
         id="path52" />
    </clipPath>
    <clipPath
       clipPathUnits="userSpaceOnUse"
       id="clipPath54">
      <path
         d="M 0,100.808 H 234.849 V 0 H 0 Z"
         transform="translate(-133.8195,-25.097398)"
         id="path54" />
    </clipPath>
    <clipPath
       clipPathUnits="userSpaceOnUse"
       id="clipPath56">
      <path
         d="M 0,100.808 H 234.849 V 0 H 0 Z"
         id="path56" />
    </clipPath>
    <clipPath
       clipPathUnits="userSpaceOnUse"
       id="clipPath58">
      <path
         d="M 0,100.808 H 234.849 V 0 H 0 Z"
         transform="translate(-147.0549,-30.240001)"
         id="path58" />
    </clipPath>
    <clipPath
       clipPathUnits="userSpaceOnUse"
       id="clipPath60">
      <path
         d="M 0,100.808 H 234.849 V 0 H 0 Z"
         transform="translate(-152.28831,-30.389401)"
         id="path60" />
    </clipPath>
    <clipPath
       clipPathUnits="userSpaceOnUse"
       id="clipPath62">
      <path
         d="M 0,100.808 H 234.849 V 0 H 0 Z"
         transform="translate(-155.2092,-26.293701)"
         id="path62" />
    </clipPath>
    <clipPath
       clipPathUnits="userSpaceOnUse"
       id="clipPath64">
      <path
         d="M 0,100.808 H 234.849 V 0 H 0 Z"
         transform="translate(-166.34301,-25.752703)"
         id="path64" />
    </clipPath>
    <clipPath
       clipPathUnits="userSpaceOnUse"
       id="clipPath66">
      <path
         d="M 0,100.808 H 234.849 V 0 H 0 Z"
         transform="translate(-169.90641,-26.156001)"
         id="path66" />
    </clipPath>
    <clipPath
       clipPathUnits="userSpaceOnUse"
       id="clipPath68">
      <path
         d="M 0,100.808 H 234.849 V 0 H 0 Z"
         transform="translate(-178.6594,-25.718503)"
         id="path68" />
    </clipPath>
    <clipPath
       clipPathUnits="userSpaceOnUse"
       id="clipPath70">
      <path
         d="M 0,100.808 H 234.849 V 0 H 0 Z"
         id="path70" />
    </clipPath>
    <clipPath
       clipPathUnits="userSpaceOnUse"
       id="clipPath72">
      <path
         d="M 0,100.808 H 234.849 V 0 H 0 Z"
         transform="translate(-190.13691,-25.752703)"
         id="path72" />
    </clipPath>
  </defs>
  <g
     id="layer-MC0"
     transform="translate(-333.13199)">
    <path
       id="path15"
       d="m 0,0 c -0.25,1.293 -0.71,2.504 -1.378,3.631 -0.667,1.128 -1.493,2.098 -2.473,2.912 -0.982,0.813 -2.088,1.461 -3.319,1.941 -1.231,0.479 -2.535,0.72 -3.913,0.72 -1.378,0 -2.683,-0.241 -3.914,-0.72 -1.232,-0.48 -2.338,-1.128 -3.319,-1.941 C -19.297,5.729 -20.111,4.759 -20.757,3.631 -21.405,2.504 -21.854,1.293 -22.104,0 Z m -22.167,-3.883 c 0.209,-1.336 0.647,-2.578 1.315,-3.725 0.667,-1.149 1.493,-2.14 2.474,-2.975 0.981,-0.836 2.098,-1.492 3.35,-1.973 1.252,-0.48 2.567,-0.719 3.945,-0.719 1.543,0 2.984,0.281 4.321,0.844 1.335,0.565 2.525,1.347 3.569,2.349 0.375,0.376 0.834,0.563 1.378,0.563 0.542,0 1.001,-0.187 1.377,-0.563 0.375,-0.376 0.563,-0.836 0.563,-1.378 0,-0.543 -0.188,-1.001 -0.563,-1.377 -1.377,-1.545 -2.934,-2.641 -4.665,-3.287 -1.733,-0.648 -3.726,-0.971 -5.98,-0.971 -2.088,0 -4.039,0.376 -5.855,1.127 -1.816,0.751 -3.413,1.794 -4.791,3.131 -1.376,1.335 -2.463,2.921 -3.255,4.759 -0.794,1.837 -1.19,3.84 -1.19,6.011 0,2.087 0.386,4.039 1.159,5.855 0.771,1.816 1.835,3.401 3.193,4.759 1.356,1.355 2.964,2.442 4.822,3.256 1.856,0.814 3.871,1.261 6.042,1.345 1.962,0 3.851,-0.396 5.667,-1.189 C -3.476,11.166 -1.878,10.081 -0.5,8.704 0.876,7.326 1.982,5.729 2.818,3.913 3.652,2.097 4.071,0.146 4.071,-1.941 4.071,-2.567 3.861,-3.048 3.444,-3.382 3.026,-3.716 2.588,-3.883 2.129,-3.883 Z"
       style="fill:#bed12b;fill-opacity:1;fill-rule:nonzero;stroke:none"
       transform="matrix(1.3333333,0,0,-1.3333333,396.83533,58.424)"
       clip-path="url(#clipPath16)" />
    <path
       id="path17"
       d="m 0,0 c 1.669,0 3.171,-0.251 4.508,-0.752 1.336,-0.501 2.484,-1.075 3.444,-1.722 0.96,-0.647 1.7,-1.295 2.223,-1.941 0.522,-0.647 0.783,-1.138 0.783,-1.472 0,-0.46 -0.188,-0.855 -0.564,-1.189 -0.375,-0.335 -0.793,-0.501 -1.251,-0.501 -0.544,0 -1.003,0.187 -1.378,0.563 -1.045,0.918 -2.234,1.66 -3.569,2.223 -1.337,0.564 -2.777,0.846 -4.321,0.846 -1.545,0 -2.996,-0.293 -4.352,-0.877 -1.357,-0.585 -2.547,-1.389 -3.569,-2.411 -1.024,-1.023 -1.828,-2.223 -2.412,-3.6 -0.584,-1.378 -0.875,-2.84 -0.875,-4.383 0,-1.545 0.291,-2.996 0.875,-4.352 0.584,-1.358 1.388,-2.547 2.412,-3.57 1.022,-1.023 2.212,-1.826 3.569,-2.41 1.356,-0.586 2.807,-0.878 4.352,-0.878 1.544,0 2.984,0.282 4.321,0.847 1.335,0.562 2.524,1.346 3.569,2.348 0.375,0.376 0.834,0.563 1.378,0.563 0.5,0 0.948,-0.179 1.345,-0.532 0.397,-0.356 0.595,-0.805 0.595,-1.347 0,-0.334 -0.24,-0.824 -0.72,-1.471 -0.48,-0.648 -1.2,-1.284 -2.16,-1.91 -0.961,-0.627 -2.14,-1.169 -3.538,-1.628 -1.399,-0.46 -2.996,-0.689 -4.79,-0.689 -2.088,0 -4.039,0.376 -5.855,1.128 -1.816,0.751 -3.413,1.794 -4.79,3.131 -1.378,1.335 -2.464,2.921 -3.256,4.758 -0.794,1.836 -1.19,3.84 -1.19,6.012 0,2.087 0.386,4.038 1.158,5.854 0.772,1.816 1.836,3.402 3.194,4.759 1.356,1.357 2.963,2.442 4.822,3.256 C -4.186,-0.533 -2.171,-0.084 0,0"
       style="fill:#bed12b;fill-opacity:1;fill-rule:nonzero;stroke:none"
       transform="matrix(1.3333333,0,0,-1.3333333,425.38947,40.9748)"
       clip-path="url(#clipPath18)" />
    <path
       id="path19"
       d="m 0,0 c -2.001,-0.001 -4.001,0.401 -5.901,1.203 -3.734,1.576 -6.63,4.513 -8.157,8.268 -3.149,7.752 0.595,16.62 8.347,19.769 4.492,1.826 9.633,1.381 13.752,-1.187 0.932,-0.581 1.216,-1.809 0.635,-2.741 -0.582,-0.934 -1.808,-1.219 -2.743,-0.636 -3.038,1.894 -6.832,2.222 -10.145,0.877 -5.718,-2.324 -8.48,-8.866 -6.157,-14.584 2.324,-5.718 8.867,-8.478 14.583,-6.157 5.718,2.324 8.48,8.866 6.157,14.584 -0.414,1.018 0.076,2.179 1.094,2.592 1.021,0.415 2.18,-0.076 2.595,-1.094 C 17.208,13.143 13.465,4.273 5.713,1.124 3.867,0.374 1.933,0 0,0"
       style="fill:#bed12b;fill-opacity:1;fill-rule:nonzero;stroke:none"
       transform="matrix(1.3333333,0,0,-1.3333333,463.30413,81.6792)"
       clip-path="url(#clipPath20)" />
    <path
       id="path21"
       d="m 0,0 c -2.505,0 -4.844,-0.47 -7.014,-1.409 -2.171,-0.94 -4.06,-2.224 -5.667,-3.852 -1.607,-1.628 -2.88,-3.538 -3.819,-5.729 -0.939,-2.192 -1.409,-4.52 -1.409,-6.982 0,-2.505 0.47,-4.843 1.409,-7.012 0.939,-2.172 2.212,-4.061 3.819,-5.668 1.607,-1.608 3.496,-2.88 5.667,-3.82 2.17,-0.939 4.509,-1.409 7.014,-1.409 2.755,0 5.385,0.584 7.89,1.754 2.504,1.168 4.571,2.817 6.198,4.946 0.167,0.251 0.417,0.376 0.752,0.376 0.667,0 1.002,-0.335 1.002,-1.002 0,-0.168 -0.084,-0.376 -0.251,-0.626 -1.795,-2.296 -4.061,-4.112 -6.794,-5.448 C 6.062,-37.217 3.13,-37.885 0,-37.885 c -2.756,0 -5.345,0.523 -7.765,1.566 -2.422,1.044 -4.53,2.463 -6.325,4.257 -1.795,1.795 -3.215,3.904 -4.258,6.326 -1.044,2.42 -1.565,5.009 -1.565,7.764 0,2.045 0.303,4.018 0.908,5.917 0.605,1.9 1.441,3.642 2.505,5.229 1.064,1.586 2.337,3.006 3.819,4.258 1.482,1.252 3.12,2.255 4.916,3.005 1.209,0.542 2.452,0.94 3.726,1.19 1.272,0.251 2.577,0.376 3.913,0.376 2.713,0 5.322,-0.511 7.827,-1.534 2.505,-1.024 4.654,-2.473 6.45,-4.352 0.333,-0.335 0.532,-0.574 0.595,-0.72 0.063,-0.147 0.094,-0.304 0.094,-0.469 0,-0.586 -0.314,-0.877 -0.94,-0.877 -0.167,0 -0.313,0.031 -0.438,0.094 -0.125,0.062 -0.356,0.26 -0.689,0.594 -1.67,1.67 -3.611,2.964 -5.823,3.883 C 4.737,-0.461 2.42,0 0,0"
       style="fill:#3b4c59;fill-opacity:1;fill-rule:nonzero;stroke:none"
       transform="matrix(1.3333333,0,0,-1.3333333,521.1896,30.788533)"
       clip-path="url(#clipPath22)" />
    <path
       id="path23"
       d="m 0,0 c -2.406,0 -4.817,0.434 -7.138,1.304 -5.078,1.904 -9.11,5.672 -11.354,10.609 -4.633,10.191 -0.111,22.252 10.081,26.886 6.651,3.021 14.454,2.226 20.366,-2.076 0.444,-0.324 0.543,-0.946 0.22,-1.39 -0.324,-0.445 -0.946,-0.543 -1.391,-0.22 -5.334,3.882 -12.374,4.6 -18.371,1.873 -9.192,-4.178 -13.272,-15.057 -9.094,-24.25 2.025,-4.453 5.661,-7.851 10.243,-9.568 4.579,-1.718 9.554,-1.548 14.007,0.476 9.192,4.178 13.272,15.056 9.093,24.25 -0.227,0.5 -0.006,1.089 0.494,1.317 0.501,0.227 1.091,0.006 1.318,-0.494 C 23.106,18.524 18.585,6.464 8.394,1.831 5.712,0.612 2.86,0 0,0"
       style="fill:#3b4c59;fill-opacity:1;fill-rule:nonzero;stroke:none"
       transform="matrix(1.3333333,0,0,-1.3333333,572.3184,82.0724)"
       clip-path="url(#clipPath24)" />
    <path
       id="path25"
       d="m 0,0 c 0.827,0.778 1.497,1.454 2.008,2.026 0.512,0.572 0.913,1.095 1.205,1.57 0.292,0.474 0.486,0.925 0.584,1.35 0.097,0.426 0.146,0.882 0.146,1.369 0,0.706 -0.122,1.363 -0.365,1.972 -0.244,0.608 -0.584,1.144 -1.022,1.607 -0.439,0.461 -0.962,0.821 -1.57,1.076 -0.609,0.256 -1.278,0.384 -2.007,0.384 -1.145,0 -2.136,-0.311 -2.976,-0.931 C -4.837,9.802 -5.402,8.944 -5.694,7.849 -5.792,7.532 -5.92,7.271 -6.078,7.063 -6.236,6.856 -6.474,6.754 -6.79,6.754 c -0.316,0 -0.578,0.102 -0.785,0.309 -0.207,0.208 -0.31,0.469 -0.31,0.786 0,0.535 0.164,1.131 0.492,1.789 0.33,0.657 0.797,1.264 1.407,1.825 0.607,0.559 1.343,1.027 2.208,1.405 0.864,0.377 1.843,0.567 2.938,0.567 0.974,0 1.881,-0.196 2.72,-0.585 C 2.72,12.461 3.456,11.938 4.089,11.28 4.722,10.623 5.221,9.851 5.586,8.962 5.951,8.073 6.133,7.143 6.133,6.17 6.133,4.977 5.847,3.833 5.275,2.738 4.703,1.643 3.797,0.535 2.556,-0.584 L -5.11,-7.703 H 4.965 c 0.316,0 0.584,-0.109 0.804,-0.328 0.218,-0.219 0.328,-0.488 0.328,-0.804 0,-0.316 -0.11,-0.578 -0.328,-0.784 C 5.549,-9.826 5.281,-9.93 4.965,-9.93 H -7.338 c -0.072,0 -0.188,0.012 -0.347,0.036 -0.158,0.025 -0.309,0.08 -0.456,0.165 -0.146,0.085 -0.28,0.207 -0.401,0.365 -0.122,0.158 -0.183,0.359 -0.183,0.602 0.024,0.317 0.231,0.669 0.621,1.059 z"
       style="fill:#3b4c59;fill-opacity:1;fill-rule:nonzero;stroke:none"
       transform="matrix(1.3333333,0,0,-1.3333333,609.45773,91.397867)"
       clip-path="url(#clipPath26)" />
    <path
       id="path27"
       d="M 0,0 C 0.195,-0.034 0.494,-0.034 0.782,-0.034 2.623,-0.046 3.716,0.967 3.716,2.935 3.728,4.648 2.737,5.626 0.966,5.626 0.518,5.626 0.195,5.592 0,5.546 Z M -1.416,6.57 C -0.794,6.674 0,6.73 0.84,6.73 2.289,6.73 3.29,6.432 4.003,5.834 4.751,5.224 5.211,4.304 5.211,2.98 5.211,1.6 4.739,0.564 4.003,-0.104 3.232,-0.805 2.001,-1.161 0.494,-1.161 c -0.828,0 -1.449,0.046 -1.91,0.103 z"
       style="fill:#868a94;fill-opacity:1;fill-rule:nonzero;stroke:none"
       transform="matrix(1.3333333,0,0,-1.3333333,369.15173,103.15707)"
       clip-path="url(#clipPath28)" />
    <path
       id="path29"
       d="m 0,0 c 0,-1.082 0.529,-1.898 1.392,-1.898 0.805,0 1.369,0.794 1.369,1.92 0,0.875 -0.392,1.876 -1.358,1.876 C 0.402,1.898 0,0.932 0,0 m 4.222,0.058 c 0,-2.06 -1.45,-2.981 -2.876,-2.981 -1.588,0 -2.808,1.094 -2.808,2.888 0,1.842 1.208,2.969 2.899,2.969 1.668,0 2.785,-1.174 2.785,-2.876"
       style="fill:#868a94;fill-opacity:1;fill-rule:nonzero;stroke:none"
       transform="matrix(1.3333333,0,0,-1.3333333,380.59053,100.87053)"
       clip-path="url(#clipPath30)" />
    <path
       id="path31"
       d="m 0,0 c 0,0.645 -0.012,1.186 -0.047,1.668 h 1.243 l 0.07,-0.84 H 1.3 c 0.241,0.438 0.851,0.967 1.783,0.967 0.978,0 1.99,-0.633 1.99,-2.404 V -3.935 H 3.658 v 3.164 c 0,0.806 -0.299,1.416 -1.07,1.416 C 2.024,0.645 1.633,0.242 1.483,-0.184 1.437,-0.311 1.426,-0.483 1.426,-0.645 v -3.29 H 0 Z"
       style="fill:#868a94;fill-opacity:1;fill-rule:nonzero;stroke:none"
       transform="matrix(1.3333333,0,0,-1.3333333,389.22347,99.3524)"
       clip-path="url(#clipPath32)" />
    <path
       id="path33"
       d="M 0,0 C 0,0.645 -0.012,1.186 -0.047,1.668 H 1.196 L 1.265,0.828 H 1.3 c 0.241,0.438 0.851,0.967 1.783,0.967 0.978,0 1.99,-0.633 1.99,-2.404 V -3.935 H 3.658 v 3.164 c 0,0.806 -0.299,1.416 -1.07,1.416 C 2.024,0.645 1.634,0.242 1.483,-0.184 1.437,-0.311 1.426,-0.483 1.426,-0.645 v -3.29 H 0 Z"
       style="fill:#868a94;fill-opacity:1;fill-rule:nonzero;stroke:none"
       transform="matrix(1.3333333,0,0,-1.3333333,399.45133,99.3524)"
       clip-path="url(#clipPath34)" />
    <path
       id="path35"
       d="m 0,0 c 0,-1.082 0.528,-1.898 1.392,-1.898 0.805,0 1.369,0.794 1.369,1.92 0,0.875 -0.391,1.876 -1.358,1.876 C 0.402,1.898 0,0.932 0,0 m 4.222,0.058 c 0,-2.06 -1.45,-2.981 -2.876,-2.981 -1.588,0 -2.808,1.094 -2.808,2.888 0,1.842 1.208,2.969 2.899,2.969 1.669,0 2.785,-1.174 2.785,-2.876"
       style="fill:#868a94;fill-opacity:1;fill-rule:nonzero;stroke:none"
       transform="matrix(1.3333333,0,0,-1.3333333,411.15173,100.87053)"
       clip-path="url(#clipPath36)" />
    <path
       id="path37"
       d="m 0,0 c 0,0.645 -0.012,1.186 -0.047,1.668 h 1.243 l 0.07,-0.84 H 1.3 c 0.241,0.438 0.851,0.967 1.783,0.967 0.978,0 1.99,-0.633 1.99,-2.404 V -3.935 H 3.658 v 3.164 c 0,0.806 -0.299,1.416 -1.07,1.416 C 2.024,0.645 1.633,0.242 1.483,-0.184 1.437,-0.311 1.426,-0.483 1.426,-0.645 v -3.29 H 0 Z"
       style="fill:#868a94;fill-opacity:1;fill-rule:nonzero;stroke:none"
       transform="matrix(1.3333333,0,0,-1.3333333,419.78333,99.3524)"
       clip-path="url(#clipPath38)" />
    <path
       id="path39"
       d="m 0,0 c 0.322,-0.195 0.932,-0.402 1.438,-0.402 0.622,0 0.897,0.253 0.897,0.621 0,0.38 -0.23,0.575 -0.92,0.817 -1.093,0.379 -1.554,0.978 -1.542,1.634 0,0.989 0.817,1.76 2.117,1.76 0.621,0 1.162,-0.161 1.485,-0.334 L 3.198,3.095 C 2.957,3.233 2.508,3.417 2.014,3.417 1.507,3.417 1.23,3.176 1.23,2.83 1.23,2.474 1.495,2.302 2.209,2.048 3.222,1.68 3.693,1.162 3.704,0.334 c 0,-1.013 -0.793,-1.749 -2.277,-1.749 -0.679,0 -1.289,0.161 -1.703,0.392 z"
       style="fill:#868a94;fill-opacity:1;fill-rule:nonzero;stroke:none"
       transform="matrix(1.3333333,0,0,-1.3333333,429.91867,102.86533)"
       clip-path="url(#clipPath40)" />
    <path
       id="path41"
       d="m 0,0 c 0,0.115 -0.012,0.253 -0.034,0.368 -0.127,0.552 -0.575,1.001 -1.22,1.001 -0.909,0 -1.415,-0.806 -1.415,-1.852 0,-1.024 0.506,-1.772 1.403,-1.772 0.576,0 1.082,0.391 1.22,1.001 C -0.012,-1.128 0,-0.989 0,-0.84 Z m 1.415,4.901 v -6.592 c 0,-0.576 0.023,-1.197 0.046,-1.577 H 0.196 L 0.139,-2.382 H 0.115 c -0.334,-0.621 -1.012,-1.013 -1.829,-1.013 -1.335,0 -2.393,1.14 -2.393,2.866 -0.011,1.875 1.162,2.991 2.508,2.991 0.771,0 1.323,-0.322 1.577,-0.736 H 0 v 3.175 z"
       style="fill:#868a94;fill-opacity:1;fill-rule:nonzero;stroke:none"
       transform="matrix(1.3333333,0,0,-1.3333333,447.49293,100.24173)"
       clip-path="url(#clipPath42)" />
    <path
       id="path43"
       d="m 0,0 c 0,-0.667 0.023,-1.22 0.046,-1.68 h -1.242 l -0.07,0.852 h -0.022 c -0.242,-0.403 -0.794,-0.979 -1.795,-0.979 -1.024,0 -1.956,0.611 -1.956,2.44 v 3.29 h 1.415 V 0.874 c 0,-0.932 0.299,-1.529 1.047,-1.529 0.563,0 0.931,0.402 1.082,0.759 0.046,0.126 0.08,0.276 0.08,0.437 V 3.923 H 0 Z"
       style="fill:#868a94;fill-opacity:1;fill-rule:nonzero;stroke:none"
       transform="matrix(1.3333333,0,0,-1.3333333,459.54627,102.35893)"
       clip-path="url(#clipPath44)" />
    <path
       id="path45"
       d="m 0,0 c 0.322,-0.195 0.932,-0.402 1.438,-0.402 0.622,0 0.897,0.253 0.897,0.621 0,0.38 -0.23,0.575 -0.92,0.817 -1.093,0.379 -1.553,0.978 -1.542,1.634 0,0.989 0.817,1.76 2.117,1.76 0.621,0 1.162,-0.161 1.485,-0.334 L 3.198,3.095 C 2.957,3.233 2.508,3.417 2.014,3.417 1.507,3.417 1.23,3.176 1.23,2.83 1.23,2.474 1.495,2.302 2.209,2.048 3.222,1.68 3.693,1.162 3.704,0.334 c 0,-1.013 -0.793,-1.749 -2.277,-1.749 -0.679,0 -1.289,0.161 -1.703,0.392 z"
       style="fill:#868a94;fill-opacity:1;fill-rule:nonzero;stroke:none"
       transform="matrix(1.3333333,0,0,-1.3333333,467.57893,102.86533)"
       clip-path="url(#clipPath46)" />
    <path
       id="path47"
       d="m 0,0 c 0.011,0.519 -0.219,1.369 -1.162,1.369 -0.875,0 -1.243,-0.793 -1.3,-1.369 z m -2.462,-0.989 c 0.034,-1.012 0.828,-1.449 1.726,-1.449 0.655,0 1.127,0.091 1.552,0.252 l 0.207,-0.977 c -0.483,-0.196 -1.15,-0.346 -1.956,-0.346 -1.817,0 -2.887,1.116 -2.887,2.83 0,1.554 0.943,3.015 2.738,3.015 1.818,0 2.416,-1.496 2.416,-2.727 0,-0.264 -0.022,-0.471 -0.046,-0.598 z"
       style="fill:#868a94;fill-opacity:1;fill-rule:nonzero;stroke:none"
       transform="matrix(1.3333333,0,0,-1.3333333,480.1388,100.07373)"
       clip-path="url(#clipPath48)" />
    <path
       id="path49"
       d="M 0,0 C 0,0.645 -0.012,1.186 -0.047,1.668 H 1.196 L 1.265,0.828 H 1.3 c 0.241,0.438 0.851,0.967 1.783,0.967 0.978,0 1.99,-0.633 1.99,-2.404 V -3.935 H 3.658 v 3.164 c 0,0.806 -0.299,1.416 -1.07,1.416 C 2.024,0.645 1.634,0.242 1.483,-0.184 1.437,-0.311 1.426,-0.483 1.426,-0.645 v -3.29 H 0 Z"
       style="fill:#868a94;fill-opacity:1;fill-rule:nonzero;stroke:none"
       transform="matrix(1.3333333,0,0,-1.3333333,484.89133,99.3524)"
       clip-path="url(#clipPath50)" />
    <path
       id="path51"
       d="m 0,0 c 0.322,-0.195 0.932,-0.402 1.438,-0.402 0.622,0 0.897,0.253 0.897,0.621 0,0.38 -0.23,0.575 -0.92,0.817 -1.093,0.379 -1.553,0.978 -1.542,1.634 0,0.989 0.817,1.76 2.117,1.76 0.621,0 1.162,-0.161 1.485,-0.334 L 3.198,3.095 C 2.957,3.233 2.508,3.417 2.014,3.417 1.507,3.417 1.23,3.176 1.23,2.83 1.23,2.474 1.495,2.302 2.209,2.048 3.222,1.68 3.693,1.162 3.704,0.334 c 0,-1.013 -0.793,-1.749 -2.277,-1.749 -0.679,0 -1.289,0.161 -1.703,0.392 z"
       style="fill:#868a94;fill-opacity:1;fill-rule:nonzero;stroke:none"
       transform="matrix(1.3333333,0,0,-1.3333333,495.0268,102.86533)"
       clip-path="url(#clipPath52)" />
    <path
       id="path53"
       d="m 0,0 c -1.001,0.022 -1.956,-0.195 -1.956,-1.047 0,-0.553 0.357,-0.806 0.806,-0.806 0.563,0 0.977,0.369 1.104,0.772 C -0.012,-0.978 0,-0.863 0,-0.771 Z M -1.208,5.292 -0.219,3.59 H -1.196 L -2.6,5.292 Z m 1.393,-8.03 -0.093,0.621 H 0.058 c -0.345,-0.437 -0.932,-0.748 -1.657,-0.748 -1.128,0 -1.76,0.817 -1.76,1.669 0,1.415 1.254,2.128 3.325,2.116 v 0.093 c 0,0.368 -0.15,0.977 -1.14,0.977 -0.552,0 -1.127,-0.173 -1.507,-0.414 l -0.276,0.92 c 0.414,0.254 1.14,0.495 2.025,0.495 1.795,0 2.313,-1.138 2.313,-2.358 v -2.026 c 0,-0.505 0.022,-1.001 0.08,-1.345 z"
       style="fill:#868a94;fill-opacity:1;fill-rule:nonzero;stroke:none"
       transform="matrix(1.3333333,0,0,-1.3333333,511.558,100.94747)"
       clip-path="url(#clipPath54)" />
    <path
       id="path55"
       d="m 141.259,30.528 h 1.426 v -8.169 h -1.426 z"
       style="fill:#868a94;fill-opacity:1;fill-rule:nonzero;stroke:none"
       transform="matrix(1.3333333,0,0,-1.3333333,333.132,134.41067)"
       clip-path="url(#clipPath56)" />
    <path
       id="path57"
       d="m 0,0 c -0.311,-1.047 -0.805,-2.231 -1.242,-2.945 l -0.863,-0.08 c 0.299,0.839 0.598,1.99 0.736,2.921 z"
       style="fill:#868a94;fill-opacity:1;fill-rule:nonzero;stroke:none"
       transform="matrix(1.3333333,0,0,-1.3333333,529.2052,94.090667)"
       clip-path="url(#clipPath58)" />
    <path
       id="path59"
       d="M 0,0 -1.415,-1.702 H -2.393 L -1.392,0 Z m -0.644,-4.637 c 0.012,0.519 -0.218,1.369 -1.162,1.369 -0.875,0 -1.243,-0.793 -1.299,-1.369 z m -2.461,-0.989 c 0.034,-1.012 0.828,-1.449 1.725,-1.449 0.655,0 1.127,0.092 1.553,0.253 L 0.38,-7.8 c -0.484,-0.196 -1.151,-0.346 -1.956,-0.346 -1.818,0 -2.888,1.117 -2.888,2.831 0,1.553 0.943,3.014 2.738,3.014 1.819,0 2.416,-1.496 2.416,-2.726 0,-0.265 -0.022,-0.472 -0.045,-0.599 z"
       style="fill:#868a94;fill-opacity:1;fill-rule:nonzero;stroke:none"
       transform="matrix(1.3333333,0,0,-1.3333333,536.18307,93.891467)"
       clip-path="url(#clipPath60)" />
    <path
       id="path61"
       d="m 0,0 c 0,0.645 -0.012,1.186 -0.047,1.668 h 1.243 l 0.07,-0.84 H 1.3 c 0.241,0.438 0.851,0.967 1.783,0.967 0.978,0 1.99,-0.633 1.99,-2.404 V -3.935 H 3.658 v 3.164 c 0,0.806 -0.299,1.416 -1.07,1.416 C 2.024,0.645 1.633,0.242 1.483,-0.184 1.437,-0.311 1.426,-0.483 1.426,-0.645 v -3.29 H 0 Z"
       style="fill:#868a94;fill-opacity:1;fill-rule:nonzero;stroke:none"
       transform="matrix(1.3333333,0,0,-1.3333333,540.0776,99.3524)"
       clip-path="url(#clipPath62)" />
    <path
       id="path63"
       d="m 0,0 c 0.011,0.519 -0.219,1.369 -1.162,1.369 -0.875,0 -1.243,-0.793 -1.3,-1.369 z m -2.462,-0.989 c 0.034,-1.012 0.828,-1.449 1.726,-1.449 0.655,0 1.127,0.091 1.552,0.252 l 0.207,-0.977 c -0.483,-0.196 -1.15,-0.346 -1.956,-0.346 -1.817,0 -2.887,1.116 -2.887,2.83 0,1.554 0.943,3.015 2.738,3.015 1.818,0 2.416,-1.496 2.416,-2.727 0,-0.264 -0.022,-0.471 -0.046,-0.598 z"
       style="fill:#868a94;fill-opacity:1;fill-rule:nonzero;stroke:none"
       transform="matrix(1.3333333,0,0,-1.3333333,554.92267,100.07373)"
       clip-path="url(#clipPath64)" />
    <path
       id="path65"
       d="M 0,0 C 0,0.759 -0.012,1.3 -0.047,1.806 H 1.185 L 1.23,0.736 h 0.046 c 0.277,0.794 0.933,1.197 1.531,1.197 0.138,0 0.218,-0.012 0.334,-0.035 V 0.563 C 3.025,0.587 2.898,0.609 2.727,0.609 2.048,0.609 1.587,0.173 1.461,-0.46 1.437,-0.587 1.415,-0.736 1.415,-0.897 v -2.9 H 0 Z"
       style="fill:#868a94;fill-opacity:1;fill-rule:nonzero;stroke:none"
       transform="matrix(1.3333333,0,0,-1.3333333,559.67387,99.536)"
       clip-path="url(#clipPath66)" />
    <path
       id="path67"
       d="m 0,0 c 0,0.127 -0.012,0.265 -0.046,0.38 -0.149,0.517 -0.553,0.909 -1.15,0.909 -0.794,0 -1.381,-0.69 -1.381,-1.83 0,-0.954 0.483,-1.726 1.369,-1.726 0.529,0 0.989,0.346 1.15,0.852 C -0.023,-1.266 0,-1.07 0,-0.909 Z M 1.461,2.243 C 1.438,1.864 1.415,1.403 1.415,0.633 V -2.543 C 1.415,-3.716 1.174,-4.556 0.587,-5.085 0,-5.603 -0.806,-5.764 -1.576,-5.764 c -0.713,0 -1.473,0.15 -1.956,0.449 l 0.31,1.07 c 0.357,-0.207 0.955,-0.426 1.634,-0.426 0.921,0 1.611,0.484 1.611,1.692 v 0.483 H 0 c -0.322,-0.495 -0.897,-0.829 -1.634,-0.829 -1.391,0 -2.382,1.15 -2.382,2.738 0,1.841 1.198,2.957 2.543,2.957 0.852,0 1.358,-0.414 1.622,-0.874 H 0.173 L 0.23,2.243 Z"
       style="fill:#868a94;fill-opacity:1;fill-rule:nonzero;stroke:none"
       transform="matrix(1.3333333,0,0,-1.3333333,571.34453,100.11933)"
       clip-path="url(#clipPath68)" />
    <path
       id="path69"
       d="m 182.638,27.962 h 1.426 v -5.603 h -1.426 z m 1.507,1.565 c 0,-0.426 -0.311,-0.76 -0.806,-0.76 -0.472,0 -0.782,0.334 -0.782,0.76 0,0.437 0.322,0.771 0.794,0.771 0.483,0 0.782,-0.334 0.794,-0.771"
       style="fill:#868a94;fill-opacity:1;fill-rule:nonzero;stroke:none"
       transform="matrix(1.3333333,0,0,-1.3333333,333.132,134.41067)"
       clip-path="url(#clipPath70)" />
    <path
       id="path71"
       d="m 0,0 c 0.012,0.519 -0.219,1.369 -1.162,1.369 -0.875,0 -1.243,-0.793 -1.3,-1.369 z m -2.462,-0.989 c 0.034,-1.012 0.828,-1.449 1.726,-1.449 0.655,0 1.127,0.091 1.552,0.252 l 0.207,-0.977 c -0.483,-0.196 -1.15,-0.346 -1.956,-0.346 -1.817,0 -2.887,1.116 -2.887,2.83 0,1.554 0.943,3.015 2.738,3.015 1.818,0 2.416,-1.496 2.416,-2.727 0,-0.264 -0.022,-0.471 -0.046,-0.598 z"
       style="fill:#868a94;fill-opacity:1;fill-rule:nonzero;stroke:none"
       transform="matrix(1.3333333,0,0,-1.3333333,586.64787,100.07373)"
       clip-path="url(#clipPath72)" />
  </g>
</svg>
